<?xml version="1.0" encoding="UTF-8"?>
<svg version="1.1" xmlns="http://www.w3.org/2000/svg" width="266" height="189">
<path d="M0 0 C87.78 0 175.56 0 266 0 C266 62.37 266 124.74 266 189 C178.22 189 90.44 189 0 189 C0 126.63 0 64.26 0 0 Z " fill="#0A2339" transform="translate(0,0)"/>
<path d="M0 0 C0.66 0 1.32 0 2 0 C2 1.65 2 3.3 2 5 C2.66 5 3.32 5 4 5 C6.41245215 7.19958873 7.92046275 8.85384781 8.15234375 12.1953125 C8.09272764 13.76606745 8.02251217 15.33645797 7.94140625 16.90625 C8.01964012 19.70180711 9.00863274 21.09160637 11 23 C10.34 23 9.68 23 9 23 C9.04125 23.78375 9.0825 24.5675 9.125 25.375 C9 28 9 28 7 30 C3.37355496 30.45295333 -0.28601738 30.32404802 -3.9375 30.3125 C-4.95263672 30.32861328 -5.96777344 30.34472656 -7.01367188 30.36132812 C-8.47450195 30.36229492 -8.47450195 30.36229492 -9.96484375 30.36328125 C-11.30470337 30.36775269 -11.30470337 30.36775269 -12.67163086 30.37231445 C-15 30 -15 30 -16.82641602 28.67260742 C-18 27 -18 27 -17.8125 23.875 C-17.544375 22.92625 -17.27625 21.9775 -17 21 C-16.34 20.67 -15.68 20.34 -15 20 C-12.69963815 16.76651288 -12.69963815 16.76651288 -12 13 C-11.2575 13.12375 -10.515 13.2475 -9.75 13.375 C-8.8425 13.25125 -7.935 13.1275 -7 13 C-4.78831775 10.05763218 -4.78831775 10.05763218 -3 7 C-2.34 7 -1.68 7 -1 7 C-0.67 4.69 -0.34 2.38 0 0 Z " fill="#8DBACA" transform="translate(132,29)"/>
<path d="M0 0 C-0.2475 1.0725 -0.495 2.145 -0.75 3.25 C-1.41313458 6.99888385 -1.41313458 6.99888385 0.8125 9.375 C2.89294168 11.01912519 2.89294168 11.01912519 5 12 C3.84826645 14.46800047 2.95216435 16.04783565 1 18 C1.04125 18.804375 1.0825 19.60875 1.125 20.4375 C1 23 1 23 -0.71655273 24.63525391 C-3.28782506 26.17202417 -4.69228938 26.38585036 -7.66015625 26.3984375 C-8.53607422 26.40230469 -9.41199219 26.40617187 -10.31445312 26.41015625 C-11.22130859 26.39855469 -12.12816406 26.38695313 -13.0625 26.375 C-14.42858398 26.39240234 -14.42858398 26.39240234 -15.82226562 26.41015625 C-17.13420898 26.40435547 -17.13420898 26.40435547 -18.47265625 26.3984375 C-19.66773804 26.39336182 -19.66773804 26.39336182 -20.88696289 26.38818359 C-23.53661167 25.90141969 -24.45933246 25.19431262 -26 23 C-25.6875 19.3125 -25.6875 19.3125 -25 16 C-24.34 16 -23.68 16 -23 16 C-22.814375 15.401875 -22.62875 14.80375 -22.4375 14.1875 C-20.28439098 10.91102975 -17.63220048 10.25248292 -14 9 C-12.68 9 -11.36 9 -10 9 C-10.12375 7.88625 -10.12375 7.88625 -10.25 6.75 C-10 4 -10 4 -8.375 1.6875 C-5.39542581 -0.42956587 -3.57763189 -0.32523926 0 0 Z " fill="#8DBAC9" transform="translate(187,32)"/>
<path d="M0 0 C-0.103125 1.258125 -0.20625 2.51625 -0.3125 3.8125 C-0.39581568 5.99141323 -0.39581568 5.99141323 0 8 C2.3549963 10.08216876 2.3549963 10.08216876 5 11 C4.731875 11.495 4.46375 11.99 4.1875 12.5 C2.82597243 15.36637383 1.80570203 18.29199242 0.78125 21.29296875 C0 23 0 23 -2 24 C-5.1402818 24.23714528 -8.28923801 24.1851834 -11.4375 24.1875 C-12.30955078 24.19974609 -13.18160156 24.21199219 -14.08007812 24.22460938 C-15.33788086 24.22750977 -15.33788086 24.22750977 -16.62109375 24.23046875 C-17.77242798 24.23663208 -17.77242798 24.23663208 -18.94702148 24.24291992 C-21 24 -21 24 -24 22 C-24.80128267 18.39422799 -24.01770293 17.02855311 -22.0625 13.875 C-19.18512014 10.62554516 -16.02396108 9.91557756 -11.94921875 8.77734375 C-9.72685024 8.13030768 -9.72685024 8.13030768 -8.625 5.5 C-8.41875 4.675 -8.2125 3.85 -8 3 C-5.65907541 -0.23270538 -3.88422613 -0.31493725 0 0 Z " fill="#142940" transform="translate(231,81)"/>
<path d="M0 0 C2 1.875 2 1.875 3 4 C3 4.66 3 5.32 3 6 C4.32 6.33 5.64 6.66 7 7 C7.6875 9.8125 7.6875 9.8125 8 13 C6.8125 14.875 6.8125 14.875 5 16 C3.68 16 2.36 16 1 16 C1 15.01 1 14.02 1 13 C0.5875 13.78375 0.175 14.5675 -0.25 15.375 C-2.47223666 18.70835499 -4.25054104 19.57588874 -8.0625 20.5 C-10.30437677 20.96516768 -10.30437677 20.96516768 -13 23 C-13 22.01 -13 21.02 -13 20 C-13.99 20 -14.98 20 -16 20 C-15.01 19.01 -14.02 18.02 -13 17 C-13.804375 16.690625 -14.60875 16.38125 -15.4375 16.0625 C-18 15 -18 15 -19 14 C-19.57493475 9.87963431 -19.18323064 8.2802351 -16.875 4.75 C-11.81764152 -0.08747333 -6.73419049 -0.66237939 0 0 Z " fill="#0C2239" transform="translate(48,85)"/>
<path d="M0 0 C4.371325 0.16812788 6.463222 0.5347924 9.8125 3.4375 C10.534375 4.283125 11.25625 5.12875 12 6 C12.66 6.66 13.32 7.32 14 8 C14.25 10.5 14.25 10.5 14 13 C13.34 13.66 12.68 14.32 12 15 C12.99 15.33 13.98 15.66 15 16 C15.33 15.01 15.66 14.02 16 13 C17.32 13.33 18.64 13.66 20 14 C19.67 15.32 19.34 16.64 19 18 C10.75 18 2.5 18 -6 18 C-6 17.34 -6 16.68 -6 16 C-6.639375 15.690625 -7.27875 15.38125 -7.9375 15.0625 C-10 14 -10 14 -11 13 C-11.04063832 11.33382885 -11.042721 9.66611905 -11 8 C-10.01 7.67 -9.02 7.34 -8 7 C-7.896875 6.360625 -7.79375 5.72125 -7.6875 5.0625 C-7.460625 4.381875 -7.23375 3.70125 -7 3 C-4 1.8125 -4 1.8125 -1 1 C-0.67 0.67 -0.34 0.34 0 0 Z " fill="#79A2B2" transform="translate(217,131)"/>
<path d="M0 0 C2 1.875 2 1.875 3 4 C3 4.66 3 5.32 3 6 C4.32 6.33 5.64 6.66 7 7 C7.6875 9.8125 7.6875 9.8125 8 13 C6.8671875 14.66015625 6.8671875 14.66015625 5 16 C2.37109375 16.4765625 2.37109375 16.4765625 -0.5625 16.625 C-4.42755332 16.75586738 -4.42755332 16.75586738 -8 18 C-8 18.66 -8 19.32 -8 20 C-9.32 19.67 -10.64 19.34 -12 19 C-12 18.34 -12 17.68 -12 17 C-12.969375 16.690625 -13.93875 16.38125 -14.9375 16.0625 C-18 15 -18 15 -19 14 C-19.57493475 9.87963431 -19.18323064 8.2802351 -16.875 4.75 C-11.81764152 -0.08747333 -6.73419049 -0.66237939 0 0 Z " fill="#0B2139" transform="translate(48,134)"/>
<path d="M0 0 C3.625 0.3125 3.625 0.3125 5.5625 2.1875 C6.625 4.3125 6.625 4.3125 6.625 6.3125 C7.945 6.6425 9.265 6.9725 10.625 7.3125 C10.667721 8.97861905 10.66563832 10.64632885 10.625 12.3125 C8.26544489 14.67205511 2.35747174 13.49792405 -0.8125 13.5 C-1.79283203 13.51224609 -2.77316406 13.52449219 -3.78320312 13.53710938 C-4.71970703 13.53904297 -5.65621094 13.54097656 -6.62109375 13.54296875 C-7.48404053 13.54707764 -8.3469873 13.55118652 -9.23608398 13.55541992 C-11.375 13.3125 -11.375 13.3125 -13.375 11.3125 C-13.1875 9.25 -13.1875 9.25 -12.375 7.3125 C-11.385 6.9825 -10.395 6.6525 -9.375 6.3125 C-8.64176204 4.29741642 -8.64176204 4.29741642 -8.375 2.3125 C-7.735625 2.168125 -7.09625 2.02375 -6.4375 1.875 C-3.37332227 1.03931517 -3.60024272 0.33335581 0 0 Z " fill="#092138" transform="translate(175.375,42.6875)"/>
<path d="M0 0 C1.125 2.5 1.125 2.5 2 5 C4.04105639 5.88693303 4.04105639 5.88693303 6 6 C7.125 9.75 7.125 9.75 6 12 C-1.26 12 -8.52 12 -16 12 C-16.33 10.35 -16.66 8.7 -17 7 C-16.01 6.67 -15.02 6.34 -14 6 C-13.9175 5.38125 -13.835 4.7625 -13.75 4.125 C-13 2 -13 2 -9.8125 0.1875 C-5.84870328 -1.04712521 -3.87963463 -1.44358498 0 0 Z " fill="#0A2138" transform="translate(133,45)"/>
<path d="M0 0 C2.625 0.25 2.625 0.25 4.375 1.5625 C5.625 3.25 5.625 3.25 6.625 6.25 C8.62516466 7.45882096 8.62516466 7.45882096 10.625 8.25 C10.295 9.9 9.965 11.55 9.625 13.25 C2.365 13.25 -4.895 13.25 -12.375 13.25 C-12.705 11.6 -13.035 9.95 -13.375 8.25 C-12.055 7.92 -10.735 7.59 -9.375 7.25 C-9.375 5.93 -9.375 4.61 -9.375 3.25 C-7.9209375 2.7859375 -7.9209375 2.7859375 -6.4375 2.3125 C-3.66537017 1.35074067 -2.77063487 0.29164578 0 0 Z " fill="#081F36" transform="translate(87.375,85.75)"/>
<path d="M0 0 C2.875 0.125 2.875 0.125 6 1 C7.625 3.4375 7.625 3.4375 9 6 C11.06700655 7.32793606 11.06700655 7.32793606 13 8 C12.67 9.65 12.34 11.3 12 13 C4.74 13 -2.52 13 -10 13 C-10.33 11.35 -10.66 9.7 -11 8 C-9.68 7.67 -8.36 7.34 -7 7 C-7 5.68 -7 4.36 -7 3 C-5.5459375 2.5359375 -5.5459375 2.5359375 -4.0625 2.0625 C-1.15934208 1.30476658 -1.15934208 1.30476658 0 0 Z " fill="#081F36" transform="translate(85,135)"/>
<path d="M0 0 C0.33 1.65 0.66 3.3 1 5 C2.32 5.33 3.64 5.66 5 6 C4.67 7.65 4.34 9.3 4 11 C-2.27 11 -8.54 11 -15 11 C-15.33 9.35 -15.66 7.7 -16 6 C-15.01 5.67 -14.02 5.34 -13 5 C-13 4.01 -13 3.02 -13 2 C-8.11922548 -0.44038726 -5.47332932 -1.46845421 0 0 Z " fill="#071D35" transform="translate(225,92)"/>
<path d="M0 0 C3.4375 0.1875 3.4375 0.1875 7 1 C8.25 2.9375 8.25 2.9375 9 5 C9.99 5.66 10.98 6.32 12 7 C11.67 8.65 11.34 10.3 11 12 C10.01 12 9.02 12 8 12 C7.34 10.68 6.68 9.36 6 8 C4.02463255 8.34786708 4.02463255 8.34786708 2 9 C1.67 9.66 1.34 10.32 1 11 C1.66 11 2.32 11 3 11 C3 10.34 3 9.68 3 9 C3.99 9 4.98 9 6 9 C6 9.99 6 10.98 6 12 C2.7 12 -0.6 12 -4 12 C-4.33 12.66 -4.66 13.32 -5 14 C-5 13.34 -5 12.68 -5 12 C-6.32 11.67 -7.64 11.34 -9 11 C-8.67 9.35 -8.34 7.7 -8 6 C-7.34 6 -6.68 6 -6 6 C-5.67 4.68 -5.34 3.36 -5 2 C-4.360625 1.855625 -3.72125 1.71125 -3.0625 1.5625 C-1.02454854 1.18992819 -1.02454854 1.18992819 0 0 Z " fill="#091E36" transform="translate(217,133)"/>
<path d="M0 0 C2.4375 1.875 2.4375 1.875 4 4 C4 4.66 4 5.32 4 6 C4.639375 6.226875 5.27875 6.45375 5.9375 6.6875 C8 8 8 8 8.75 10.625 C8.87375 11.800625 8.87375 11.800625 9 13 C8.175 13.61875 7.35 14.2375 6.5 14.875 C5.675 15.57625 4.85 16.2775 4 17 C4 17.66 4 18.32 4 19 C-1.94 19 -7.88 19 -14 19 C-14 18.34 -14 17.68 -14 17 C-15.62626404 15.61767557 -17.2925002 14.28062485 -19 13 C-18.56489218 8.068778 -16.45118597 5.45118597 -13 2 C-8.67686105 -0.06758819 -4.75823742 -0.52869305 0 0 Z M-6 1 C-6.66 1.66 -7.32 2.32 -8 3 C-10.625 3.625 -10.625 3.625 -13 4 C-13 5.32 -13 6.64 -13 8 C-14.32 8.33 -15.64 8.66 -17 9 C-16.67 10.65 -16.34 12.3 -16 14 C-8.74 14 -1.48 14 6 14 C6.33 12.35 6.66 10.7 7 9 C6.401875 8.773125 5.80375 8.54625 5.1875 8.3125 C3 7 3 7 1.625 4.4375 C0.17076899 1.6987723 0.17076899 1.6987723 -3.0625 1.0625 C-4.031875 1.041875 -5.00125 1.02125 -6 1 Z " fill="#93C2D1" transform="translate(91,134)"/>
<path d="M0 0 C-0.03255208 1.98567708 -0.06510417 3.97135417 -0.09765625 5.95703125 C-0.08263217 8.20305461 -0.08263217 8.20305461 1 11 C2.65 11.33 4.3 11.66 6 12 C5.625 13.9375 5.625 13.9375 5 16 C1.79158965 17.60420518 -1.5193987 17.47462745 -5 17 C-7.5 15.5 -7.5 15.5 -9 13 C-9.45515851 9.8138904 -9.69914647 8.01768349 -9 5 C-5.99057097 0.98742796 -5.10203966 0 0 0 Z " fill="#0F253C" transform="translate(132,137)"/>
<path d="M0 0 C2.375 1.875 2.375 1.875 4 4 C4 4.66 4 5.32 4 6 C4.639375 6.309375 5.27875 6.61875 5.9375 6.9375 C8 8 8 8 9 9 C9.3125 11.375 9.3125 11.375 9 14 C6.72285584 16.19862195 5.02076303 16.99307899 2 18 C2.66 18.66 3.32 19.32 4 20 C2 23 2 23 0 24 C-0.66 23.67 -1.32 23.34 -2 23 C-2 21.68 -2 20.36 -2 19 C-1.34 19 -0.68 19 0 19 C0 18.34 0 17.68 0 17 C-1.44632813 17.05220703 -1.44632813 17.05220703 -2.921875 17.10546875 C-4.18515625 17.13253906 -5.4484375 17.15960938 -6.75 17.1875 C-8.00296875 17.22230469 -9.2559375 17.25710937 -10.546875 17.29296875 C-14.15845887 16.98655609 -15.50574921 16.56182901 -18 14 C-18.625 11.75 -18.625 11.75 -18 9 C-15.87161812 5.75936694 -13.73354398 2.53440078 -9.921875 1.359375 C-9.28765625 1.24078125 -8.6534375 1.1221875 -8 1 C-5.15916359 -0.42041821 -3.14522722 -0.31452272 0 0 Z M-8 3 C-8 3.66 -8 4.32 -8 5 C-9.32 4.67 -10.64 4.34 -12 4 C-12.0825 4.61875 -12.165 5.2375 -12.25 5.875 C-13 8 -13 8 -15.0625 9.25 C-16.0215625 9.62125 -16.0215625 9.62125 -17 10 C-16.50243908 12.75641416 -16.50243908 12.75641416 -15 15 C-13.45044441 15.09899523 -11.89646327 15.13079524 -10.34375 15.1328125 C-9.40402344 15.13410156 -8.46429688 15.13539062 -7.49609375 15.13671875 C-6.01302734 15.13091797 -6.01302734 15.13091797 -4.5 15.125 C-3.51128906 15.12886719 -2.52257812 15.13273437 -1.50390625 15.13671875 C-0.56417969 15.13542969 0.37554687 15.13414063 1.34375 15.1328125 C2.64602539 15.13112061 2.64602539 15.13112061 3.97460938 15.12939453 C5.99604154 15.2241537 5.99604154 15.2241537 7 14 C7.04063832 12.33382885 7.042721 10.66611905 7 9 C5.68 8.67 4.36 8.34 3 8 C2.87625 7.38125 2.7525 6.7625 2.625 6.125 C2.12802644 3.80879168 2.12802644 3.80879168 0 2 C-4.14509433 1.71397838 -4.14509433 1.71397838 -8 3 Z " fill="#92C1D0" transform="translate(135,83)"/>
<path d="M0 0 C3.27066566 -0.08706892 6.54103365 -0.14041241 9.8125 -0.1875 C10.74126953 -0.21263672 11.67003906 -0.23777344 12.62695312 -0.26367188 C13.9659668 -0.27817383 13.9659668 -0.27817383 15.33203125 -0.29296875 C16.56530151 -0.31653442 16.56530151 -0.31653442 17.82348633 -0.34057617 C20.47502434 0.07433079 21.33263592 0.95529751 23 3 C22.34 4.32 21.68 5.64 21 7 C19.01432292 6.70703125 17.02864583 6.4140625 15.04296875 6.12109375 C12.7974658 5.86095201 12.7974658 5.86095201 10 7 C8.79117904 9.00016466 8.79117904 9.00016466 8 11 C6.68 10.67 5.36 10.34 4 10 C4 6.79604584 4.74335022 4.90600261 6 2 C3.69 2 1.38 2 -1 2 C-0.67 1.34 -0.34 0.68 0 0 Z " fill="#29465D" transform="translate(210,150)"/>
<path d="M0 0 C2.4375 1.875 2.4375 1.875 4 4 C4 4.66 4 5.32 4 6 C4.639375 6.226875 5.27875 6.45375 5.9375 6.6875 C8 8 8 8 8.9375 10.4375 C9 13 9 13 7.81640625 14.63525391 C5.43196425 16.4267903 3.96446237 16.38712687 1 16.3984375 C0.030625 16.40230469 -0.93875 16.40617187 -1.9375 16.41015625 C-2.948125 16.39855469 -3.95875 16.38695313 -5 16.375 C-6.010625 16.38660156 -7.02125 16.39820312 -8.0625 16.41015625 C-9.031875 16.40628906 -10.00125 16.40242188 -11 16.3984375 C-11.886875 16.39505371 -12.77375 16.39166992 -13.6875 16.38818359 C-16.44485984 15.92532442 -17.36170811 15.23446307 -19 13 C-19 8.14432241 -16.31245822 5.31245822 -13 2 C-8.67686105 -0.06758819 -4.75823742 -0.52869305 0 0 Z M-8 3 C-10.625 3.625 -10.625 3.625 -13 4 C-13 5.32 -13 6.64 -13 8 C-14.32 8.33 -15.64 8.66 -17 9 C-16.67 10.65 -16.34 12.3 -16 14 C-8.74 14 -1.48 14 6 14 C6.33 12.35 6.66 10.7 7 9 C6.401875 8.773125 5.80375 8.54625 5.1875 8.3125 C2.42886244 6.65731747 1.50669981 4.79815679 0 2 C-1.05310277 0.72996677 -1.05310277 0.72996677 -3.4375 0.8125 C-6.16734675 0.73160017 -6.16734675 0.73160017 -8 3 Z " fill="#92C1D0" transform="translate(91,85)"/>
<path d="M0 0 C1.875 1.375 1.875 1.375 3 3 C3 3.99 3 4.98 3 6 C4.32 6.33 5.64 6.66 7 7 C7.6875 9.8125 7.6875 9.8125 8 13 C6.83422852 14.67651367 6.83422852 14.67651367 5 16 C2.67163086 16.37231445 2.67163086 16.37231445 -0.03515625 16.36328125 C-1.00904297 16.36263672 -1.98292969 16.36199219 -2.98632812 16.36132812 C-4.00146484 16.34521484 -5.01660156 16.32910156 -6.0625 16.3125 C-7.59100586 16.31733398 -7.59100586 16.31733398 -9.15039062 16.32226562 C-16.73300859 16.26699141 -16.73300859 16.26699141 -19 14 C-19.65783864 9.86501428 -19.19146887 8.29283474 -16.875 4.75 C-13.87934816 1.88459389 -11.96882921 0.97015825 -8 0 C-5.06317146 -1.46841427 -3.13175678 -0.76696084 0 0 Z M-9 3 C-11.625 3.625 -11.625 3.625 -14 4 C-14 5.32 -14 6.64 -14 8 C-15.32 8.33 -16.64 8.66 -18 9 C-18 10.32 -18 11.64 -18 13 C-15.54724859 14.2263757 -13.9494219 14.11415314 -11.2109375 14.09765625 C-9.79941406 14.09282227 -9.79941406 14.09282227 -8.359375 14.08789062 C-6.88210937 14.07532227 -6.88210937 14.07532227 -5.375 14.0625 C-4.38242187 14.05798828 -3.38984375 14.05347656 -2.3671875 14.04882812 C0.0886016 14.03702145 2.54427104 14.020554 5 14 C5.33 12.35 5.66 10.7 6 9 C4.68 8.67 3.36 8.34 2 8 C1.896875 7.21625 1.79375 6.4325 1.6875 5.625 C1.22404978 2.66954819 1.22404978 2.66954819 -2 1 C-5.97232265 0.56178998 -5.97232265 0.56178998 -9 3 Z " fill="#87B3C3" transform="translate(48,37)"/>
<path d="M0 0 C2 1.875 2 1.875 3 4 C3 4.66 3 5.32 3 6 C4.32 6.33 5.64 6.66 7 7 C8.31690141 12.38732394 8.31690141 12.38732394 7.0625 14.8125 C3.74460891 16.72280093 0.8224447 16.81797882 -3 17 C-3.66 16.34 -4.32 15.68 -5 15 C-5 14.01 -5 13.02 -5 12 C-3.1875 11.3125 -3.1875 11.3125 -1 11 C0.75 12.4375 0.75 12.4375 2 14 C2.99 13.67 3.98 13.34 5 13 C5 11.68 5 10.36 5 9 C4.01 8.67 3.02 8.34 2 8 C0.8125 5.4375 0.8125 5.4375 0 3 C-3.40320934 2.32326553 -3.40320934 2.32326553 -7 2 C-7.66 2.66 -8.32 3.32 -9 4 C-11.625 4.125 -11.625 4.125 -14 4 C-14 5.32 -14 6.64 -14 8 C-14.99 8 -15.98 8 -17 8 C-17 9.65 -17 11.3 -17 13 C-15.68 13.33 -14.36 13.66 -13 14 C-13 14.66 -13 15.32 -13 16 C-17.875 15.125 -17.875 15.125 -19 14 C-19.57493475 9.87963431 -19.18323064 8.2802351 -16.875 4.75 C-11.81764152 -0.08747333 -6.73419049 -0.66237939 0 0 Z " fill="#94C3D2" transform="translate(48,134)"/>
<path d="M0 0 C3.69018292 2.87555763 6.70295857 5.90523911 7.375 10.64453125 C7.25125 11.42183594 7.1275 12.19914062 7 13 C3.89596635 15.06935577 3.18099981 15.25517909 -0.34375 15.265625 C-1.17777344 15.26820312 -2.01179687 15.27078125 -2.87109375 15.2734375 C-3.73863281 15.26570313 -4.60617188 15.25796875 -5.5 15.25 C-6.80130859 15.26160156 -6.80130859 15.26160156 -8.12890625 15.2734375 C-8.96292969 15.27085938 -9.79695312 15.26828125 -10.65625 15.265625 C-11.41744141 15.26336914 -12.17863281 15.26111328 -12.96289062 15.25878906 C-15 15 -15 15 -18 13 C-18.5 10.75 -18.5 10.75 -18 8 C-13.67920612 1.70398605 -7.91574033 -2.22536851 0 0 Z M-13 4 C-13 4.99 -13 5.98 -13 7 C-13.99 7.33 -14.98 7.66 -16 8 C-15.67 9.65 -15.34 11.3 -15 13 C-8.73 13 -2.46 13 4 13 C4.33 11.35 4.66 9.7 5 8 C3.68 7.67 2.36 7.34 1 7 C0.67 5.35 0.34 3.7 0 2 C-5.47332932 0.53154579 -8.11922548 1.55961274 -13 4 Z " fill="#80ABBA" transform="translate(225,90)"/>
<path d="M0 0 C1.32 0 2.64 0 4 0 C3.67 0.99 3.34 1.98 3 3 C2.34 2.67 1.68 2.34 1 2 C1 2.66 1 3.32 1 4 C7.6 4 14.2 4 21 4 C21.66 5.32 22.32 6.64 23 8 C16.4 8 9.8 8 3 8 C3 8.99 3 9.98 3 11 C4.32 10.67 5.64 10.34 7 10 C6.67 10.99 6.34 11.98 6 13 C4.35 12.67 2.7 12.34 1 12 C1.33 10.02 1.66 8.04 2 6 C1.01 5.34 0.02 4.68 -1 4 C-0.67 2.68 -0.34 1.36 0 0 Z " fill="#294255" transform="translate(164,92)"/>
<path d="M0 0 C1.9375 1.875 1.9375 1.875 3 4 C3 4.66 3 5.32 3 6 C4.32 6.66 5.64 7.32 7 8 C7.1875 10.375 7.1875 10.375 7 13 C3.88783261 15.07477826 3.15939492 15.25522588 -0.37890625 15.265625 C-1.21744141 15.26820312 -2.05597656 15.27078125 -2.91992188 15.2734375 C-4.22799805 15.26183594 -4.22799805 15.26183594 -5.5625 15.25 C-6.87637695 15.26160156 -6.87637695 15.26160156 -8.21679688 15.2734375 C-9.05404297 15.27085938 -9.89128906 15.26828125 -10.75390625 15.265625 C-11.52033447 15.26336914 -12.2867627 15.26111328 -13.07641602 15.25878906 C-15 15 -15 15 -17 13 C-17.125 9.875 -17.125 9.875 -17 7 C-16.01 6.67 -15.02 6.34 -14 6 C-13.896875 5.360625 -13.79375 4.72125 -13.6875 4.0625 C-13.460625 3.381875 -13.23375 2.70125 -13 2 C-8.7010504 -0.04711886 -4.7171648 -0.53401866 0 0 Z M-6 1 C-6.66 1.66 -7.32 2.32 -8 3 C-10.125 3.625 -10.125 3.625 -12 4 C-12 4.99 -12 5.98 -12 7 C-13.32 7.33 -14.64 7.66 -16 8 C-15.67 9.65 -15.34 11.3 -15 13 C-8.4 13 -1.8 13 5 13 C5.33 11.68 5.66 10.36 6 9 C5.38125 8.773125 4.7625 8.54625 4.125 8.3125 C2 7 2 7 1.125 4.4375 C0.568125 3.2309375 0.568125 3.2309375 0 2 C-2.95361173 0.92424122 -2.95361173 0.92424122 -6 1 Z " fill="#8AB6C6" transform="translate(224,40)"/>
<path d="M0 0 C2 1.875 2 1.875 3 4 C3 4.66 3 5.32 3 6 C4.32 6.33 5.64 6.66 7 7 C7.6875 9.8125 7.6875 9.8125 8 13 C6.75 14.875 6.75 14.875 5 16 C4.01 16 3.02 16 2 16 C2 15.34 2 14.68 2 14 C2.99 13.67 3.98 13.34 5 13 C5 11.68 5 10.36 5 9 C4.01 8.67 3.02 8.34 2 8 C0.8125 5.4375 0.8125 5.4375 0 3 C-3.40320934 2.32326553 -3.40320934 2.32326553 -7 2 C-7.66 2.66 -8.32 3.32 -9 4 C-11.625 4.125 -11.625 4.125 -14 4 C-14 5.32 -14 6.64 -14 8 C-14.99 8 -15.98 8 -17 8 C-17 9.65 -17 11.3 -17 13 C-15.68 13.33 -14.36 13.66 -13 14 C-13 14.66 -13 15.32 -13 16 C-17.875 15.125 -17.875 15.125 -19 14 C-19.57493475 9.87963431 -19.18323064 8.2802351 -16.875 4.75 C-11.81764152 -0.08747333 -6.73419049 -0.66237939 0 0 Z " fill="#94C3D2" transform="translate(48,85)"/>
<path d="M0 0 C4.371325 0.16812788 6.463222 0.5347924 9.8125 3.4375 C10.534375 4.283125 11.25625 5.12875 12 6 C12.66 6.66 13.32 7.32 14 8 C14.25 10.5 14.25 10.5 14 13 C13.34 13.66 12.68 14.32 12 15 C9.875 14.625 9.875 14.625 8 14 C8.99 13.67 9.98 13.34 11 13 C11 11.68 11 10.36 11 9 C10.01 8.34 9.02 7.68 8 7 C7.67 6.01 7.34 5.02 7 4 C1.71800407 2.80011955 1.71800407 2.80011955 -3 5 C-3.66 5 -4.32 5 -5 5 C-5.33 5.99 -5.66 6.98 -6 8 C-6.99 8.495 -6.99 8.495 -8 9 C-8 10.32 -8 11.64 -8 13 C-7.01 13.66 -6.02 14.32 -5 15 C-9.875 14.125 -9.875 14.125 -11 13 C-11.04063832 11.33382885 -11.042721 9.66611905 -11 8 C-10.01 7.67 -9.02 7.34 -8 7 C-7.896875 6.360625 -7.79375 5.72125 -7.6875 5.0625 C-7.460625 4.381875 -7.23375 3.70125 -7 3 C-4 1.8125 -4 1.8125 -1 1 C-0.67 0.67 -0.34 0.34 0 0 Z " fill="#8EBCCC" transform="translate(217,131)"/>
<path d="M0 0 C1.875 0.3125 1.875 0.3125 3.875 1.375 C5.48356522 4.49159511 5.29713381 6.87512469 4.875 10.3125 C3.25 12.75 3.25 12.75 0.875 14.3125 C-2.27022722 14.62702272 -4.28416359 14.73291821 -7.125 13.3125 C-7.455 14.3025 -7.785 15.2925 -8.125 16.3125 C-9.445 15.9825 -10.765 15.6525 -12.125 15.3125 C-11.63 14.9825 -11.135 14.6525 -10.625 14.3125 C-8.60971811 11.62545749 -9.09188598 9.49880689 -9.1875 6.25390625 C-9.125 4.3125 -9.125 4.3125 -8.125 1.8125 C-5.40517779 -0.22736665 -3.33598919 -0.19623466 0 0 Z M-7.125 3.3125 C-7.54166667 6.8125 -7.54166667 6.8125 -7.125 10.3125 C-5.23999729 12.62813087 -5.23999729 12.62813087 -2.125 12.5625 C0.98999729 12.62813087 0.98999729 12.62813087 2.875 10.3125 C3.29166667 6.8125 3.29166667 6.8125 2.875 3.3125 C-1.22413608 0.57974261 -3.02586392 0.57974261 -7.125 3.3125 Z " fill="#91BFCE" transform="translate(88.125,37.6875)"/>
<path d="M0 0 C0.061875 1.216875 0.12375 2.43375 0.1875 3.6875 C0.71163126 8.15849852 2.50586395 10.13301658 6 13 C3.35261084 14.4606285 2.10551666 15 -1 15 C-2.5625 12.625 -2.5625 12.625 -4 10 C-4.66 9.34 -5.32 8.68 -6 8 C-5.83219367 4.72777656 -5.45369859 3.41116435 -3 1.1875 C-1 0 -1 0 0 0 Z " fill="#0D233B" transform="translate(184,33)"/>
<path d="M0 0 C-0.03255208 1.98567708 -0.06510417 3.97135417 -0.09765625 5.95703125 C-0.08263217 8.20305461 -0.08263217 8.20305461 1 11 C2.65 11.33 4.3 11.66 6 12 C5.625 13.9375 5.625 13.9375 5 16 C1.79158965 17.60420518 -1.5193987 17.47462745 -5 17 C-7.5 15.5 -7.5 15.5 -9 13 C-9.45515851 9.8138904 -9.69914647 8.01768349 -9 5 C-5.99057097 0.98742796 -5.10203966 0 0 0 Z M-6.1875 3.5625 C-8.35429227 5.97020773 -8.35429227 5.97020773 -8 9.5625 C-7.26294804 12.96274624 -7.26294804 12.96274624 -5.3125 15 C-2.22020156 16.33721014 -0.21223855 15.80305964 3 15 C3 14.34 3 13.68 3 13 C2.0409375 12.1646875 2.0409375 12.1646875 1.0625 11.3125 C-1.61915931 8.30579108 -1.69666145 5.94340119 -2 2 C-4.17679328 1.80625394 -4.17679328 1.80625394 -6.1875 3.5625 Z " fill="#91BFCF" transform="translate(132,137)"/>
<path d="M0 0 C2.625 0.25 2.625 0.25 4.4375 1.4375 C6.03621458 3.87764331 5.98340349 5.38277207 5.625 8.25 C4.635 9.735 4.635 9.735 3.625 11.25 C4.285 11.25 4.945 11.25 5.625 11.25 C5.295 11.91 4.965 12.57 4.625 13.25 C2.625 12.25 2.625 12.25 1.3125 9.8125 C-0.64786429 6.83565053 -2.02162411 6.24694959 -5.375 5.25 C-2.9868068 0.31440072 -2.9868068 0.31440072 0 0 Z " fill="#0C223A" transform="translate(133.375,36.75)"/>
<path d="M0 0 C3.27066566 -0.08706892 6.54103365 -0.14041241 9.8125 -0.1875 C10.74126953 -0.21263672 11.67003906 -0.23777344 12.62695312 -0.26367188 C13.9659668 -0.27817383 13.9659668 -0.27817383 15.33203125 -0.29296875 C16.56530151 -0.31653442 16.56530151 -0.31653442 17.82348633 -0.34057617 C20.47502434 0.07433079 21.33263592 0.95529751 23 3 C22.34 4.32 21.68 5.64 21 7 C18.525 6.505 18.525 6.505 16 6 C16 5.01 16 4.02 16 3 C16.66 3 17.32 3 18 3 C18 3.66 18 4.32 18 5 C18.99 5 19.98 5 21 5 C20.67 4.34 20.34 3.68 20 3 C13.07 2.67 6.14 2.34 -1 2 C-0.67 1.34 -0.34 0.68 0 0 Z " fill="#7DA7B7" transform="translate(210,150)"/>
<path d="M0 0 C1.9375 0.75 1.9375 0.75 4 2 C4.33333333 3.33333333 4.66666667 4.66666667 5 6 C5.66 6.309375 6.32 6.61875 7 6.9375 C7.99 7.4634375 7.99 7.4634375 9 8 C9.75 10.625 9.75 10.625 10 13 C7.87423295 14.86751623 6.56254558 15.93888764 3.70996094 16.2487793 C2.89301758 16.19117432 2.07607422 16.13356934 1.234375 16.07421875 C0.34492187 16.01943359 -0.54453125 15.96464844 -1.4609375 15.90820312 C-2.38132812 15.83537109 -3.30171875 15.76253906 -4.25 15.6875 C-5.65378906 15.5956543 -5.65378906 15.5956543 -7.0859375 15.50195312 C-9.3920088 15.34899942 -11.69600533 15.1812095 -14 15 C-14 14.67 -14 14.34 -14 14 C-3.605 13.505 -3.605 13.505 7 13 C7 11.68 7 10.36 7 9 C6.401875 8.773125 5.80375 8.54625 5.1875 8.3125 C2.40651597 6.64390958 1.4358084 4.8716168 0 2 C0 1.34 0 0.68 0 0 Z " fill="#7CA5B5" transform="translate(90,85)"/>
<path d="M0 0 C2.86677189 2.29235378 5.1925589 4.79562138 7 8 C6.67 8.99 6.34 9.98 6 11 C5.34 10.01 4.68 9.02 4 8 C3.01 7.67 2.02 7.34 1 7 C0.67 5.35 0.34 3.7 0 2 C-4.7897321 1.76571687 -4.7897321 1.76571687 -9 4 C-10.32 4 -11.64 4 -13 4 C-13 4.99 -13 5.98 -13 7 C-15.5 9.1875 -15.5 9.1875 -18 11 C-17.42274324 7.10351684 -15.68124732 4.8302055 -13 2 C-9.05579673 -0.30078524 -4.44405547 -1.26375212 0 0 Z " fill="#91BFCF" transform="translate(225,90)"/>
<path d="M0 0 C0.99 0.33 1.98 0.66 3 1 C4.31690141 6.38732394 4.31690141 6.38732394 3.0625 8.8125 C-0.25539109 10.72280093 -3.1775553 10.81797882 -7 11 C-7.66 10.34 -8.32 9.68 -9 9 C-9 8.01 -9 7.02 -9 6 C-7.1875 5.3125 -7.1875 5.3125 -5 5 C-3.25 6.4375 -3.25 6.4375 -2 8 C-1.01 7.67 -0.02 7.34 1 7 C1 5.68 1 4.36 1 3 C0.01 2.34 -0.98 1.68 -2 1 C-1.34 0.67 -0.68 0.34 0 0 Z " fill="#83AEBE" transform="translate(52,140)"/>
<path d="M0 0 C1.32 0.33 2.64 0.66 4 1 C3.01 1.66 2.02 2.32 1 3 C0.67 3.99 0.34 4.98 0 6 C-0.99 6.495 -0.99 6.495 -2 7 C-1.67 8.65 -1.34 10.3 -1 12 C5.27 12.33 11.54 12.66 18 13 C18 13.33 18 13.66 18 14 C14.72933434 14.08706892 11.45896635 14.14041241 8.1875 14.1875 C7.25873047 14.21263672 6.32996094 14.23777344 5.37304688 14.26367188 C4.0340332 14.27817383 4.0340332 14.27817383 2.66796875 14.29296875 C1.84578857 14.3086792 1.0236084 14.32438965 0.17651367 14.34057617 C-2 14 -2 14 -3.8034668 12.67700195 C-5 11 -5 11 -4.8125 7.875 C-4.544375 6.92625 -4.27625 5.9775 -4 5 C-3.34 4.67 -2.68 4.34 -2 4 C-0.86649466 1.98330173 -0.86649466 1.98330173 0 0 Z " fill="#90BECE" transform="translate(119,45)"/>
<path d="M0 0 C-0.1546875 1.8871875 -0.1546875 1.8871875 -0.3125 3.8125 C-0.39581568 5.99141323 -0.39581568 5.99141323 0 8 C2.3549963 10.08216876 2.3549963 10.08216876 5 11 C4.34 12.32 3.68 13.64 3 15 C2.01 14.67 1.02 14.34 0 14 C0.66 13.67 1.32 13.34 2 13 C1.175 12.113125 0.35 11.22625 -0.5 10.3125 C-2.46099476 7.98692593 -2.97259478 7.25212806 -3.3125 4.125 C-3.209375 3.42375 -3.10625 2.7225 -3 2 C-3.61875 2.61875 -4.2375 3.2375 -4.875 3.875 C-6.25 5.25 -7.625 6.625 -9 8 C-8.64005447 5.3364031 -8.28838998 3.41816548 -6.75 1.1875 C-4.41988723 -0.39364795 -2.75498245 -0.22337696 0 0 Z " fill="#92C0D0" transform="translate(231,81)"/>
<path d="M0 0 C0.33 0.66 0.66 1.32 1 2 C1.66 2.268125 2.32 2.53625 3 2.8125 C5 4 5 4 5.75 6.625 C5.87375 7.800625 5.87375 7.800625 6 9 C3.87423295 10.86751623 2.56254558 11.93888764 -0.29003906 12.2487793 C-1.10698242 12.19117432 -1.92392578 12.13356934 -2.765625 12.07421875 C-3.65507813 12.01943359 -4.54453125 11.96464844 -5.4609375 11.90820312 C-6.38132812 11.83537109 -7.30171875 11.76253906 -8.25 11.6875 C-9.65378906 11.5956543 -9.65378906 11.5956543 -11.0859375 11.50195312 C-13.3920088 11.34899942 -15.69600533 11.1812095 -18 11 C-18 10.67 -18 10.34 -18 10 C-7.605 9.505 -7.605 9.505 3 9 C3 7.68 3 6.36 3 5 C1.68 4.34 0.36 3.68 -1 3 C-0.67 2.01 -0.34 1.02 0 0 Z " fill="#739BAA" transform="translate(94,138)"/>
<path d="M0 0 C7.26 0 14.52 0 22 0 C22 0.33 22 0.66 22 1 C21.113125 1.268125 20.22625 1.53625 19.3125 1.8125 C16.23122452 2.91710819 13.73778595 4.22849144 11 6 C11 4 11 4 12.5 2.375 C12.995 1.92125 13.49 1.4675 14 1 C8.84001623 1.37409251 8.84001623 1.37409251 4.5625 4.0625 C4.046875 4.701875 3.53125 5.34125 3 6 C2.34 5.34 1.68 4.68 1 4 C1.99 3.01 2.98 2.02 4 1 C3.01 1.33 2.02 1.66 1 2 C0.67 1.34 0.34 0.68 0 0 Z " fill="#000824" transform="translate(75,101)"/>
<path d="M0 0 C0.66 0 1.32 0 2 0 C2 1.65 2 3.3 2 5 C2.66 5 3.32 5 4 5 C6.32444946 7.18771713 7.8623477 8.87166826 8.2578125 12.11328125 C8.25083521 14.07738938 8.13285574 16.0403779 8 18 C7.01 18.33 6.02 18.66 5 19 C5.32552083 16.98177083 5.65104167 14.96354167 5.9765625 12.9453125 C5.98429688 12.30335937 5.99203125 11.66140625 6 11 C3.64046906 8.64046906 2.22104383 8.50858587 -1 8 C-0.67 5.36 -0.34 2.72 0 0 Z " fill="#96C5D5" transform="translate(132,29)"/>
<path d="M0 0 C4.95 0 9.9 0 15 0 C15 0.33 15 0.66 15 1 C13.35 1 11.7 1 10 1 C9.9175 1.598125 9.835 2.19625 9.75 2.8125 C8.77590452 5.65361183 7.59505753 6.54982079 5 8 C4.01 7.67 3.02 7.34 2 7 C2.99 5.68 3.98 4.36 5 3 C2.525 2.01 2.525 2.01 0 1 C0 0.67 0 0.34 0 0 Z " fill="#051933" transform="translate(167,148)"/>
<path d="M0 0 C6.27 0 12.54 0 19 0 C18.01 0.66 17.02 1.32 16 2 C16.66 2.66 17.32 3.32 18 4 C16 7 16 7 14 8 C13.34 7.67 12.68 7.34 12 7 C12 5.68 12 4.36 12 3 C12.66 3 13.32 3 14 3 C14 2.34 14 1.68 14 1 C9.38 1 4.76 1 0 1 C0 0.67 0 0.34 0 0 Z " fill="#7097A7" transform="translate(121,99)"/>
<path d="M0 0 C1.32 1.32 2.64 2.64 4 4 C3.34 4 2.68 4 2 4 C2 5.65 2 7.3 2 9 C-1.04120692 10.77504706 -3.04674654 11.21305767 -6.546875 10.9765625 C-7.81337891 10.89921875 -7.81337891 10.89921875 -9.10546875 10.8203125 C-9.97816406 10.75585938 -10.85085937 10.69140625 -11.75 10.625 C-12.63816406 10.56828125 -13.52632813 10.5115625 -14.44140625 10.453125 C-16.62846332 10.31202454 -18.8143069 10.1606567 -21 10 C-21 9.67 -21 9.34 -21 9 C-14.07 9 -7.14 9 0 9 C0 6.03 0 3.06 0 0 Z " fill="#759DAD" transform="translate(139,48)"/>
<path d="M0 0 C0 0.66 0 1.32 0 2 C-5.94 2 -11.88 2 -18 2 C-18 1.34 -18 0.68 -18 0 C-11.96496237 -1.50875941 -6.10261631 -0.64186094 0 0 Z " fill="#6B90A2" transform="translate(95,151)"/>
<path d="M0 0 C2.0625 0.4375 2.0625 0.4375 4 1 C5.125 4.75 5.125 4.75 4 7 C2.125 7.8125 2.125 7.8125 0 8 C-1.75 6.5625 -1.75 6.5625 -3 5 C-1.125 1.125 -1.125 1.125 0 0 Z " fill="#8EBCCC" transform="translate(125,102)"/>
<path d="M0 0 C6.93 0 13.86 0 21 0 C21 0.33 21 0.66 21 1 C14.4 1 7.8 1 1 1 C1 1.99 1 2.98 1 4 C2.32 3.67 3.64 3.34 5 3 C4.67 3.99 4.34 4.98 4 6 C2.35 5.67 0.7 5.34 -1 5 C-0.67 3.35 -0.34 1.7 0 0 Z " fill="#9ACAD9" transform="translate(166,99)"/>
<path d="M0 0 C6.27 0 12.54 0 19 0 C18.67 0.66 18.34 1.32 18 2 C16.88625 1.938125 15.7725 1.87625 14.625 1.8125 C12.830625 1.9053125 12.830625 1.9053125 11 2 C10.01 3.485 10.01 3.485 9 5 C8.34 5 7.68 5 7 5 C6.67 5.66 6.34 6.32 6 7 C6 5.66666667 6 4.33333333 6 3 C5.34 3 4.68 3 4 3 C4 2.34 4 1.68 4 1 C3.01 1.33 2.02 1.66 1 2 C0.67 1.34 0.34 0.68 0 0 Z " fill="#081631" transform="translate(209,55)"/>
<path d="M0 0 C0.33 0 0.66 0 1 0 C1.309375 1.423125 1.309375 1.423125 1.625 2.875 C2.70833333 6.29166667 2.70833333 6.29166667 6.125 7.375 C7.07375 7.58125 8.0225 7.7875 9 8 C9 8.33 9 8.66 9 9 C3.25 9.125 3.25 9.125 1 8 C0.67 8.99 0.34 9.98 0 11 C-1.32 10.67 -2.64 10.34 -4 10 C-3.525625 9.649375 -3.05125 9.29875 -2.5625 8.9375 C-0.32126175 6.15836457 -0.32882342 3.4855283 0 0 Z " fill="#7097A8" transform="translate(80,43)"/>
<path d="M0 0 C1.32 0 2.64 0 4 0 C3.67 0.99 3.34 1.98 3 3 C2.34 2.67 1.68 2.34 1 2 C1 2.66 1 3.32 1 4 C7.6 4 14.2 4 21 4 C21 4.33 21 4.66 21 5 C14.07 5 7.14 5 0 5 C-0.33 3.68 -0.66 2.36 -1 1 C-0.67 0.67 -0.34 0.34 0 0 Z " fill="#9ACADA" transform="translate(164,92)"/>
<path d="M0 0 C1.65 0.33 3.3 0.66 5 1 C4.67 2.65 4.34 4.3 4 6 C-1.61 6 -7.22 6 -13 6 C-13 5.67 -13 5.34 -13 5 C-11.85660156 4.95101562 -10.71320313 4.90203125 -9.53515625 4.8515625 C-8.04424527 4.77654811 -6.55336108 4.70099972 -5.0625 4.625 C-4.30775391 4.5940625 -3.55300781 4.563125 -2.77539062 4.53125 C-0.84492605 4.4273685 1.07942081 4.22104386 3 4 C3.33 3.34 3.66 2.68 4 2 C2.35 2.66 0.7 3.32 -1 4 C-0.67 2.68 -0.34 1.36 0 0 Z " fill="#ABDFEE" transform="translate(177,135)"/>
<path d="M0 0 C1.134375 0.020625 2.26875 0.04125 3.4375 0.0625 C3.1075 1.0525 2.7775 2.0425 2.4375 3.0625 C1.7775 3.0625 1.1175 3.0625 0.4375 3.0625 C-0.2225 4.3825 -0.8825 5.7025 -1.5625 7.0625 C-1.8925 5.7425 -2.2225 4.4225 -2.5625 3.0625 C-4.5425 4.0525 -4.5425 4.0525 -6.5625 5.0625 C-4.14811644 0.07277397 -4.14811644 0.07277397 0 0 Z " fill="#658B9C" transform="translate(85.5625,101.9375)"/>
<path d="M0 0 C0.8125 1.625 0.8125 1.625 1 4 C-0.46818136 6.24609835 -2.15852858 8.02378677 -4 10 C-4.33 9.01 -4.66 8.02 -5 7 C-5.99 7 -6.98 7 -8 7 C-5.42215154 4.35247996 -3.08351902 2.05567935 0 0 Z " fill="#81ACBC" transform="translate(40,98)"/>
<path d="M0 0 C6.93 0 13.86 0 21 0 C21 1.32 21 2.64 21 4 C20.34 4 19.68 4 19 4 C19 3.34 19 2.68 19 2 C12.73 1.67 6.46 1.34 0 1 C0 0.67 0 0.34 0 0 Z " fill="#436073" transform="translate(165,147)"/>
<path d="M0 0 C1.4540625 0.0309375 1.4540625 0.0309375 2.9375 0.0625 C2.1875 2.5 2.1875 2.5 0.9375 5.0625 C-1.1875 5.875 -1.1875 5.875 -3.0625 6.0625 C-2.7325 5.0725 -2.4025 4.0825 -2.0625 3.0625 C-4.0425 4.0525 -4.0425 4.0525 -6.0625 5.0625 C-3.64893617 0.07446809 -3.64893617 0.07446809 0 0 Z " fill="#608496" transform="translate(220.0625,105.9375)"/>
<path d="M0 0 C6.6 0 13.2 0 20 0 C20 0.33 20 0.66 20 1 C15.05 1 10.1 1 5 1 C4.67 1.66 4.34 2.32 4 3 C2.68 3 1.36 3 0 3 C0 2.01 0 1.02 0 0 Z " fill="#2E4559" transform="translate(167,100)"/>
<path d="M0 0 C-1.85714286 7.57142857 -1.85714286 7.57142857 -5 10 C-5.66 9.67 -6.32 9.34 -7 9 C-6.34 8.34 -5.68 7.68 -5 7 C-5 5.68 -5 4.36 -5 3 C-2.64285714 0 -2.64285714 0 0 0 Z " fill="#88B4C4" transform="translate(49,95)"/>
<path d="M0 0 C1.65 0.33 3.3 0.66 5 1 C5 1.66 5 2.32 5 3 C8.63 3 12.26 3 16 3 C16 3.33 16 3.66 16 4 C10.72 4 5.44 4 0 4 C0 2.68 0 1.36 0 0 Z " fill="#324D61" transform="translate(172,89)"/>
<path d="M0 0 C2.31 0 4.62 0 7 0 C5.75 2 5.75 2 4 4 C2.68 4 1.36 4 0 4 C-2.20067421 4.93283296 -2.20067421 4.93283296 -4 6 C-4 5.34 -4 4.68 -4 4 C-3.34 4 -2.68 4 -2 4 C-1.34 2.68 -0.68 1.36 0 0 Z " fill="#5B7E90" transform="translate(220,56)"/>
<path d="M0 0 C0.99 0.33 1.98 0.66 3 1 C3.6875 3.8125 3.6875 3.8125 4 7 C2.75 8.875 2.75 8.875 1 10 C0.01 10 -0.98 10 -2 10 C-2 9.34 -2 8.68 -2 8 C-1.01 7.67 -0.02 7.34 1 7 C1 5.68 1 4.36 1 3 C0.01 2.34 -0.98 1.68 -2 1 C-1.34 0.67 -0.68 0.34 0 0 Z " fill="#82ACBC" transform="translate(52,91)"/>
<path d="M0 0 C0.66 0 1.32 0 2 0 C2 0.66 2 1.32 2 2 C2.66 2.33 3.32 2.66 4 3 C4 3.66 4 4.32 4 5 C3.34 5 2.68 5 2 5 C2 5.66 2 6.32 2 7 C0.68 6.67 -0.64 6.34 -2 6 C-2 4.68 -2 3.36 -2 2 C-1.34 2 -0.68 2 0 2 C0 1.34 0 0.68 0 0 Z " fill="#86B1C1" transform="translate(38,147)"/>
<path d="M0 0 C2.31 0 4.62 0 7 0 C5.71937515 1.7074998 4.38232443 3.37373596 3 5 C2.34 5 1.68 5 1 5 C1 4.34 1 3.68 1 3 C0.34 3 -0.32 3 -1 3 C-0.67 2.01 -0.34 1.02 0 0 Z " fill="#5C8093" transform="translate(167,150)"/>
<path d="M0 0 C0.99 0 1.98 0 3 0 C2.67 0.99 2.34 1.98 2 3 C-3.61 3 -9.22 3 -15 3 C-15 2.67 -15 2.34 -15 2 C-14.00097656 1.93941406 -13.00195312 1.87882813 -11.97265625 1.81640625 C-10.68230469 1.73261719 -9.39195312 1.64882812 -8.0625 1.5625 C-6.77472656 1.48128906 -5.48695313 1.40007812 -4.16015625 1.31640625 C-1.13976043 1.35080812 -1.13976043 1.35080812 0 0 Z " fill="#051A33" transform="translate(178,137)"/>
<path d="M0 0 C0.66 1.32 1.32 2.64 2 4 C1.01 4.495 1.01 4.495 0 5 C0 6.32 0 7.64 0 9 C0.99 9.66 1.98 10.32 3 11 C-1.875 10.125 -1.875 10.125 -3 9 C-3.04063832 7.33382885 -3.042721 5.66611905 -3 4 C-2.01 3.67 -1.02 3.34 0 3 C0 2.01 0 1.02 0 0 Z " fill="#86B1C1" transform="translate(209,135)"/>
<path d="M0 0 C1.32 0.66 2.64 1.32 4 2 C4.125 4.375 4.125 4.375 4 7 C3.34 7.66 2.68 8.32 2 9 C-0.125 8.625 -0.125 8.625 -2 8 C-1.01 7.67 -0.02 7.34 1 7 C1 5.68 1 4.36 1 3 C0.34 2.34 -0.32 1.68 -1 1 C-0.67 0.67 -0.34 0.34 0 0 Z " fill="#87B3C2" transform="translate(227,137)"/>
<path d="M0 0 C2.31 0 4.62 0 7 0 C7.33 1.32 7.66 2.64 8 4 C7.01 3.67 6.02 3.34 5 3 C4.67 3.66 4.34 4.32 4 5 C2.64567325 3.68799596 1.31266518 2.35368596 0 1 C0 0.67 0 0.34 0 0 Z " fill="#466477" transform="translate(226,43)"/>
<path d="M0 0 C0.66 0 1.32 0 2 0 C1.25 1.9375 1.25 1.9375 0 4 C-2 4.8125 -2 4.8125 -4 5 C-4.66 4.67 -5.32 4.34 -6 4 C-5.67 3.01 -5.34 2.02 -5 1 C-3.68 1 -2.36 1 -1 1 C-0.67 0.67 -0.34 0.34 0 0 Z " fill="#6E94A5" transform="translate(48,151)"/>
<path d="M0 0 C1.32 1.65 2.64 3.3 4 5 C3.01 5.33 2.02 5.66 1 6 C1 5.34 1 4.68 1 4 C-0.32 4.99 -1.64 5.98 -3 7 C-3.66 6.67 -4.32 6.34 -5 6 C-5 5.34 -5 4.68 -5 4 C-3.37373596 2.61767557 -1.7074998 1.28062485 0 0 Z " fill="#04132E" transform="translate(225,153)"/>
<path d="M0 0 C0.66 0 1.32 0 2 0 C2 0.99 2 1.98 2 3 C-3.28 3 -8.56 3 -14 3 C-14 2.67 -14 2.34 -14 2 C-13.07316406 1.93941406 -12.14632812 1.87882813 -11.19140625 1.81640625 C-9.39509766 1.69072266 -9.39509766 1.69072266 -7.5625 1.5625 C-5.77005859 1.44068359 -5.77005859 1.44068359 -3.94140625 1.31640625 C-1.11429756 1.32343886 -1.11429756 1.32343886 0 0 Z " fill="#04102D" transform="translate(181,140)"/>
<path d="M0 0 C0.66 0 1.32 0 2 0 C2 1.65 2 3.3 2 5 C2.66 5 3.32 5 4 5 C4 5.66 4 6.32 4 7 C2.35 7 0.7 7 -1 7 C-0.67 4.69 -0.34 2.38 0 0 Z " fill="#557789" transform="translate(132,29)"/>
<path d="M0 0 C1.98 0.495 1.98 0.495 4 1 C4 2.32 4 3.64 4 5 C3.34 5 2.68 5 2 5 C2 4.34 2 3.68 2 3 C1.01 3 0.02 3 -1 3 C-0.67 2.01 -0.34 1.02 0 0 Z " fill="#507385" transform="translate(177,150)"/>
<path d="M0 0 C0.33 0.99 0.66 1.98 1 3 C1.66 3 2.32 3 3 3 C3 2.34 3 1.68 3 1 C3.99 1 4.98 1 6 1 C6 1.99 6 2.98 6 4 C2.7 4 -0.6 4 -4 4 C-2.68 3.67 -1.36 3.34 0 3 C0 2.01 0 1.02 0 0 Z " fill="#040C27" transform="translate(217,141)"/>
<path d="M0 0 C0.66 0 1.32 0 2 0 C1 2 0 4 -1 6 C-0.01 6.33 0.98 6.66 2 7 C0.35 7 -1.3 7 -3 7 C-2.25 2.25 -2.25 2.25 0 0 Z " fill="#759CAC" transform="translate(129,36)"/>
<path d="M0 0 C-1 3 -1 3 -2.875 4.25 C-5 5 -5 5 -8 4 C-2.25 0 -2.25 0 0 0 Z " fill="#334E63" transform="translate(223,154)"/>
<path d="M0 0 C1.65 0.33 3.3 0.66 5 1 C5 2.32 5 3.64 5 5 C4.34 4.67 3.68 4.34 3 4 C3.33 3.34 3.66 2.68 4 2 C2.35 2.66 0.7 3.32 -1 4 C-0.67 2.68 -0.34 1.36 0 0 Z " fill="#8EBCCB" transform="translate(177,135)"/>
<path d="M0 0 C1.32 0.33 2.64 0.66 4 1 C2.68 1.33 1.36 1.66 0 2 C0 3.32 0 4.64 0 6 C-0.99 5.67 -1.98 5.34 -3 5 C-2.01 3.35 -1.02 1.7 0 0 Z " fill="#80AABA" transform="translate(34,136)"/>
<path d="M0 0 C1.32 0.33 2.64 0.66 4 1 C2.68 1.33 1.36 1.66 0 2 C0 3.32 0 4.64 0 6 C-0.99 5.67 -1.98 5.34 -3 5 C-2.01 3.35 -1.02 1.7 0 0 Z " fill="#82ACBC" transform="translate(34,87)"/>
</svg>
